<svg xmlns="http://www.w3.org/2000/svg" version="1.1" width="1024" height="684">
<rect x="0" y="0" width="1024" height="684" fill="#5cabb6" />
<g transform="scale(4.000000) translate(0.5 0.5)">
<polygon fill="#000b1f" fill-opacity="0.501961" points="-16,183 -7,76 220,168" />
<polygon fill="#daf3fa" fill-opacity="0.501961" points="-16,19 240,-16 271,149" />
<polygon fill="#00a2ad" fill-opacity="0.501961" points="271,136 33,139 -16,50" />
<polygon fill="#d3ffff" fill-opacity="0.501961" points="-10,-16 40,67 156,98" />
<polygon fill="#002e3e" fill-opacity="0.501961" points="199,168 -16,107 -9,186" />
<polygon fill="#ebedf3" fill-opacity="0.501961" points="243,93 156,-13 35,-11" />
<polygon fill="#3bb0bb" fill-opacity="0.501961" points="194,186 271,132 150,54" />
<polygon fill="#009faa" fill-opacity="0.501961" points="245,186 107,79 -16,79" />
<polygon fill="#46c4d3" fill-opacity="0.501961" points="74,6 182,74 68,59" />
<polygon fill="#00b3bc" fill-opacity="0.501961" points="83,103 3,26 -16,72" />
<polygon fill="#006171" fill-opacity="0.501961" points="-9,86 207,163 -3,147" />
<polygon fill="#d5faff" fill-opacity="0.501961" points="187,128 209,159 239,170" />
<polygon fill="#cfedf5" fill-opacity="0.501961" points="-16,18 131,-2 22,-16" />
<polygon fill="#1d929c" fill-opacity="0.501961" points="271,150 238,186 205,92" />
<polygon fill="#8d99a1" fill-opacity="0.501961" points="254,-12 266,63 200,0" />
<polygon fill="#001f31" fill-opacity="0.501961" points="-16,167 68,141 180,186" />
<polygon fill="#00abb9" fill-opacity="0.501961" points="106,45 115,60 63,55" />
<polygon fill="#83d3de" fill-opacity="0.501961" points="207,101 195,134 107,87" />
<polygon fill="#bcd5da" fill-opacity="0.501961" points="271,19 126,60 238,100" />
<polygon fill="#008b99" fill-opacity="0.501961" points="142,103 193,186 207,150" />
<polygon fill="#ccf1fb" fill-opacity="0.501961" points="68,78 24,52 127,76" />
<polygon fill="#5ec5d6" fill-opacity="0.501961" points="117,27 65,33 -5,-15" />
<polygon fill="#d0ebf3" fill-opacity="0.501961" points="19,5 34,62 85,46" />
<polygon fill="#93b0b2" fill-opacity="0.501961" points="231,106 271,175 271,3" />
<polygon fill="#00aab5" fill-opacity="0.501961" points="59,121 -10,33 132,121" />
<polygon fill="#21485d" fill-opacity="0.501961" points="257,2 233,1 228,10" />
<polygon fill="#cdf4fc" fill-opacity="0.501961" points="127,89 182,103 124,69" />
<polygon fill="#a3bdca" fill-opacity="0.501961" points="264,59 173,-16 99,-16" />
<polygon fill="#cce6ed" fill-opacity="0.501961" points="246,0 181,62 201,75" />
<polygon fill="#005967" fill-opacity="0.501961" points="163,137 49,141 210,186" />
<polygon fill="#f2ffff" fill-opacity="0.501961" points="197,142 185,128 215,148" />
<polygon fill="#3c5b69" fill-opacity="0.501961" points="251,12 229,30 256,-8" />
<polygon fill="#62bfcc" fill-opacity="0.501961" points="173,65 120,65 223,121" />
<polygon fill="#10929e" fill-opacity="0.501961" points="192,124 271,173 235,170" />
<polygon fill="#4c6e81" fill-opacity="0.501961" points="205,32 226,13 215,31" />
<polygon fill="#0dacbb" fill-opacity="0.501961" points="104,56 91,61 92,69" />
<polygon fill="#cce4ea" fill-opacity="0.501961" points="60,-16 184,74 219,33" />
<polygon fill="#99deeb" fill-opacity="0.501961" points="141,57 77,41 89,26" />
<polygon fill="#01798a" fill-opacity="0.501961" points="-16,82 43,132 146,134" />
<polygon fill="#e4fbff" fill-opacity="0.501961" points="216,-16 175,24 197,-16" />
<polygon fill="#003c4a" fill-opacity="0.501961" points="127,151 -16,169 4,134" />
<polygon fill="#aae8f0" fill-opacity="0.501961" points="112,89 117,84 136,100" />
<polygon fill="#d0eef4" fill-opacity="0.501961" points="234,1 229,-10 206,27" />
<polygon fill="#a9ebf8" fill-opacity="0.501961" points="236,146 224,142 226,136" />
<polygon fill="#618aa1" fill-opacity="0.501961" points="245,-13 226,-16 195,26" />
<polygon fill="#daf6fe" fill-opacity="0.501961" points="217,-16 229,-9 197,18" />
<polygon fill="#2eafb9" fill-opacity="0.501961" points="141,104 205,132 165,100" />
<polygon fill="#001d54" fill-opacity="0.501961" points="202,2 241,-16 190,-16" />
<polygon fill="#0cb6c0" fill-opacity="0.501961" points="9,67 74,107 124,88" />
<polygon fill="#b1dce4" fill-opacity="0.501961" points="-1,-16 -4,24 67,69" />
<polygon fill="#059aa4" fill-opacity="0.501961" points="165,116 104,112 231,186" />
<polygon fill="#3e6b88" fill-opacity="0.501961" points="183,5 168,15 174,16" />
<polygon fill="#00a1ab" fill-opacity="0.501961" points="11,31 32,58 -16,27" />
<polygon fill="#a7e2f1" fill-opacity="0.501961" points="217,153 241,177 220,186" />
<polygon fill="#eeffff" fill-opacity="0.501961" points="247,15 249,20 240,15" />
<polygon fill="#000000" fill-opacity="0.501961" points="251,16 266,22 271,14" />
<polygon fill="#00024b" fill-opacity="0.501961" points="187,2 181,-16 176,-5" />
<polygon fill="#c6e2df" fill-opacity="0.501961" points="259,5 242,10 271,12" />
<polygon fill="#34bbc7" fill-opacity="0.501961" points="68,49 122,47 115,65" />
<polygon fill="#9edae8" fill-opacity="0.501961" points="169,78 109,59 144,56" />
<polygon fill="#5c91ad" fill-opacity="0.501961" points="162,2 155,18 171,-2" />
<polygon fill="#71bbc7" fill-opacity="0.501961" points="212,91 204,123 139,47" />
<polygon fill="#74d9e5" fill-opacity="0.501961" points="202,149 192,137 200,156" />
<polygon fill="#093249" fill-opacity="0.501961" points="232,31 228,29 233,26" />
<polygon fill="#c5ecf5" fill-opacity="0.501961" points="155,86 174,108 194,112" />
<polygon fill="#bad8de" fill-opacity="0.501961" points="185,74 250,110 219,25" />
<polygon fill="#00606d" fill-opacity="0.501961" points="54,150 16,90 -16,116" />
<polygon fill="#5b9fa7" fill-opacity="0.501961" points="267,141 243,151 228,101" />
<polygon fill="#bee9f1" fill-opacity="0.501961" points="88,80 145,80 101,61" />
<polygon fill="#d4f5fe" fill-opacity="0.501961" points="201,141 208,154 218,153" />
<polygon fill="#e9ffff" fill-opacity="0.501961" points="182,-1 178,-16 169,11" />
<polygon fill="#3b7693" fill-opacity="0.501961" points="154,-13 145,7 162,-10" />
<polygon fill="#33bfcf" fill-opacity="0.501961" points="66,56 66,66 91,43" />
<polygon fill="#d4edf4" fill-opacity="0.501961" points="92,57 72,77 76,59" />
<polygon fill="#6fc4d1" fill-opacity="0.501961" points="172,76 133,33 88,22" />
<polygon fill="#1b3240" fill-opacity="0.501961" points="261,21 246,22 254,24" />
<polygon fill="#d4f0f5" fill-opacity="0.501961" points="205,23 219,30 207,16" />
<polygon fill="#000013" fill-opacity="0.501961" points="243,13 246,14 249,11" />
<polygon fill="#2e556e" fill-opacity="0.501961" points="195,22 201,25 199,29" />
<polygon fill="#9ec7cb" fill-opacity="0.501961" points="253,83 271,31 236,19" />
<polygon fill="#002756" fill-opacity="0.501961" points="187,13 188,16 192,15" />
<polygon fill="#a9e2ec" fill-opacity="0.501961" points="75,43 56,73 31,57" />
<polygon fill="#d4ecf3" fill-opacity="0.501961" points="167,49 202,3 192,31" />
<polygon fill="#002034" fill-opacity="0.501961" points="-16,173 160,185 74,155" />
<polygon fill="#dff1f4" fill-opacity="0.501961" points="48,47 47,21 78,46" />
<polygon fill="#004c5b" fill-opacity="0.501961" points="90,152 203,167 155,186" />
<polygon fill="#d9f9ff" fill-opacity="0.501961" points="164,2 164,-16 144,18" />
<polygon fill="#94c4cb" fill-opacity="0.501961" points="206,60 271,92 238,89" />
<polygon fill="#001a3e" fill-opacity="0.501961" points="232,10 226,10 233,6" />
<polygon fill="#24a7b1" fill-opacity="0.501961" points="227,113 225,132 197,94" />
<polygon fill="#b2d6d4" fill-opacity="0.501961" points="246,-16 238,9 267,-16" />
<polygon fill="#001d4a" fill-opacity="0.501961" points="214,2 213,6 220,2" />
<polygon fill="#5f8e9e" fill-opacity="0.501961" points="190,21 183,18 181,28" />
<polygon fill="#45b4bf" fill-opacity="0.501961" points="174,103 187,131 212,137" />
<polygon fill="#daf8fa" fill-opacity="0.501961" points="221,6 229,12 212,7" />
<polygon fill="#d9ebee" fill-opacity="0.501961" points="19,3 7,25 48,23" />
<polygon fill="#00001f" fill-opacity="0.501961" points="104,-16 164,-16 136,0" />
<polygon fill="#d5eff1" fill-opacity="0.501961" points="262,21 247,17 271,33" />
<polygon fill="#ecffff" fill-opacity="0.501961" points="172,11 178,19 180,15" />
<polygon fill="#b7dae2" fill-opacity="0.501961" points="218,33 134,2 173,30" />
</g>
</svg>